<svg width="164" height="42" viewBox="0 0 164 42" fill="none" xmlns="http://www.w3.org/2000/svg">
<rect width="42" height="42" rx="2" fill="url(#paint0_linear_5175_12513)"/>
<path d="M31.4454 26.9998C30.1506 29.2457 28.1701 31.0174 25.7944 32.055C23.4187 33.0925 20.7731 33.3413 18.2456 32.7647C15.7182 32.1881 13.4421 30.8166 11.7515 28.8514C10.0608 26.8863 9.04457 24.4309 8.85189 21.8457C8.65922 19.2605 9.30026 16.6817 10.6809 14.4876C12.0616 12.2935 14.1092 10.5997 16.5233 9.65488C18.9373 8.71003 21.5906 8.56384 24.0938 9.23777C26.5971 9.91169 28.8184 11.3702 30.4317 13.3994L26.0563 16.8783C25.1868 15.7847 23.9897 14.9986 22.6407 14.6354C21.2916 14.2722 19.8616 14.351 18.5606 14.8602C17.2596 15.3694 16.1561 16.2823 15.412 17.4647C14.6679 18.6472 14.3225 20.037 14.4263 21.4303C14.5301 22.8235 15.0778 24.1468 15.989 25.2059C16.9001 26.265 18.1268 27.0041 19.4889 27.3148C20.851 27.6256 22.2768 27.4915 23.5571 26.9323C24.8375 26.3732 25.9048 25.4183 26.6026 24.208L31.4454 26.9998Z" fill="white"/>
<path d="M62.88 30.336C67.2 30.336 69.888 27.576 70.272 23.76H67.512C67.344 25.848 66.168 28.056 62.856 28.056C59.064 28.056 57.624 24.84 57.624 21.408C57.624 18 59.064 14.784 62.856 14.784C66.144 14.784 67.2 16.992 67.512 18.672H70.272C69.864 15.24 67.2 12.504 62.904 12.504C58.032 12.504 54.864 16.248 54.864 21.432C54.864 26.592 58.008 30.336 62.88 30.336ZM72.2419 30H74.5939V12.84H72.2419V30ZM82.6581 30.36C85.8741 30.36 87.6741 28.584 88.3221 26.232H85.9221C85.7061 27.048 84.8661 28.44 82.7061 28.44C80.2821 28.44 79.0821 26.544 79.0341 24.504H88.4421C88.4661 24.312 88.4661 23.952 88.4661 23.616C88.4661 19.824 86.3781 17.376 82.6581 17.376C78.9141 17.376 76.6101 20.016 76.6101 23.856C76.6101 27.6 78.7701 30.36 82.6581 30.36ZM79.0341 22.656C79.1781 20.64 80.6181 19.296 82.5861 19.296C84.6741 19.296 86.0181 20.736 86.0181 22.656H79.0341ZM93.8368 30.336C95.8288 30.336 97.2208 29.544 98.0128 28.272H98.0608C98.2048 29.664 98.8288 30.12 100.005 30.12C100.389 30.12 100.797 30.072 101.205 29.976V28.536C101.061 28.56 100.989 28.56 100.917 28.56C100.461 28.56 100.341 28.104 100.341 27.216V21.6C100.341 18.432 98.3248 17.376 95.8048 17.376C92.0608 17.376 90.5248 19.224 90.4048 21.576H92.8048C92.9248 19.944 93.5728 19.272 95.7088 19.272C97.5088 19.272 98.0368 20.016 98.0368 20.904C98.0368 22.104 96.8608 22.344 94.9408 22.704C91.8928 23.28 89.8288 24.096 89.8288 26.832C89.8288 28.92 91.3888 30.336 93.8368 30.336ZM92.2768 26.664C92.2768 25.392 93.1888 24.792 95.3488 24.36C96.5968 24.096 97.6528 23.832 98.0368 23.472V25.224C98.0368 27.36 96.4768 28.44 94.3648 28.44C92.9008 28.44 92.2768 27.816 92.2768 26.664ZM105.555 23.664C105.555 21.336 107.091 19.728 109.227 19.728C109.515 19.728 109.731 19.752 110.019 19.8V17.544C109.659 17.496 109.323 17.472 108.891 17.472C107.235 17.472 106.251 18.552 105.603 20.088H105.555V17.76H103.203V30H105.555V23.664ZM111.767 30H114.407V22.56H121.895V20.28H114.407V15.12H123.671V12.84H111.767V30ZM129.65 30.36C132.866 30.36 134.666 28.584 135.314 26.232H132.914C132.698 27.048 131.858 28.44 129.698 28.44C127.274 28.44 126.074 26.544 126.026 24.504H135.434C135.458 24.312 135.458 23.952 135.458 23.616C135.458 19.824 133.37 17.376 129.65 17.376C125.906 17.376 123.602 20.016 123.602 23.856C123.602 27.6 125.762 30.36 129.65 30.36ZM126.026 22.656C126.17 20.64 127.61 19.296 129.578 19.296C131.666 19.296 133.01 20.736 133.01 22.656H126.026ZM142.869 30.36C146.085 30.36 147.885 28.584 148.533 26.232H146.133C145.917 27.048 145.077 28.44 142.917 28.44C140.493 28.44 139.293 26.544 139.245 24.504H148.653C148.677 24.312 148.677 23.952 148.677 23.616C148.677 19.824 146.589 17.376 142.869 17.376C139.125 17.376 136.821 20.016 136.821 23.856C136.821 27.6 138.981 30.36 142.869 30.36ZM139.245 22.656C139.389 20.64 140.829 19.296 142.797 19.296C144.885 19.296 146.229 20.736 146.229 22.656H139.245ZM155.536 30.336C157.456 30.336 158.632 29.424 159.304 28.56H159.352V30H161.704V12.84H159.352V19.248H159.304C158.632 18.288 157.456 17.4 155.536 17.4C152.416 17.4 150.04 19.848 150.04 23.88C150.04 27.912 152.416 30.336 155.536 30.336ZM152.488 23.88C152.488 21.48 153.616 19.368 155.92 19.368C158.032 19.368 159.328 21.096 159.328 23.88C159.328 26.64 158.032 28.392 155.92 28.392C153.616 28.392 152.488 26.28 152.488 23.88Z" fill="black"/>
<defs>
<linearGradient id="paint0_linear_5175_12513" x1="3.87134e-07" y1="0.735" x2="42" y2="42" gradientUnits="userSpaceOnUse">
<stop stop-color="#C784DA"/>
<stop offset="1" stop-color="#6D55FF"/>
</linearGradient>
</defs>
</svg>
